# xmcd CD database file
#
# Track frame offsets:
#	150
#	19709
#	39223
#	52446
#	65235
#	79787
#	94378
#	104799
#	115241
#	132257
#	149308
#	164092
#	178777
#	196006
#	213115
#	227755
#	242489
#	258222
#	273920
#	295343
#	317151
#
# Disc length: 4245 seconds
#
# Revision: 0
# Processed by: cddbd v1.5.1PL0 Copyright (c) Steve Scherf et al.
# Submitted via: CDex 1.51
#
DISCID=3d109315
DTITLE=Hal Leonard - Rodgers and Hart Favorites vol 11
DYEAR=1900
DGENRE=Jazz
TTITLE0=Bewitched-split
TTITLE1=Bewitched
TTITLE2=The Blue Room-split
TTITLE3=The Blue Room
TTITLE4=Dancing On The Ceiling-split
TTITLE5=Dancing On The Ceiling
TTITLE6=I Could Write A Book-split
TTITLE7=I Could Write A Book
TTITLE8=Have You Met Miss Jones-split
TTITLE9=Have You Met Miss Jones
TTITLE10=The Lady Is A Tramp-split
TTITLE11=The Lady Is A Tramp
TTITLE12=Little Girl Blue-split
TTITLE13=Little Girl Blue
TTITLE14=My Romance-split
TTITLE15=My Romance
TTITLE16=There's A Small Hotel-split
TTITLE17=There's A Small Hotel
TTITLE18=You Are Too Beautiful-split
TTITLE19=You Are Too Beautiful
TTITLE20=Bb Tuning Notes
EXTD=
EXTT0=
EXTT1=
EXTT2=
EXTT3=
EXTT4=
EXTT5=
EXTT6=
EXTT7=
EXTT8=
EXTT9=
EXTT10=
EXTT11=
EXTT12=
EXTT13=
EXTT14=
EXTT15=
EXTT16=
EXTT17=
EXTT18=
EXTT19=
EXTT20=
PLAYORDER=
